# xmcd
#
# Track frame offsets:
#	182
#	18222
#	30570
#	43752
#	54915
#	62060
#	75202
#	89075
#	100252
#	116315
#	132640
#	148437
#	158237
#	174630
#	192720
#	204355
#
# Disc length: 2862 seconds
#
# Revision: 1
# Processed by: cddbd v1.4PL0 Copyright (c) Steve Scherf et al.
# Submitted via: EasyCDDAExtractor 5.0.6
#
DISCID=de0b2c10
DTITLE=Ñico Membiela - Canciones De Siempre (16 Exitos)
DYEAR=1900
DGENRE=Bolero
TTITLE0=Damisela Encantadora
TTITLE1=Amor En Tragos
TTITLE2=Tengo Un Nuevo Amor
TTITLE3=Muñeca De Cristal
TTITLE4=Para Vigo Me Voy
TTITLE5=En Las Tinieblas
TTITLE6=Como El Arrullo De Palmas
TTITLE7=Mariposa
TTITLE8=Ojos Malvados
TTITLE9=Mentiras Tuyas
TTITLE10=Alma De Mujer
TTITLE11=Noche Azul
TTITLE12=Siboney
TTITLE13=Alma De Roca
TTITLE14=Condicion
TTITLE15=Amar y Vivir
EXTD=
EXTT0=
EXTT1=
EXTT2=
EXTT3=
EXTT4=
EXTT5=
EXTT6=
EXTT7=
EXTT8=
EXTT9=
EXTT10=
EXTT11=
EXTT12=
EXTT13=
EXTT14=
EXTT15=
PLAYORDER=
